<svg xmlns="http://www.w3.org/2000/svg" width="25" height="25" viewBox="0 0 25 25"><defs><style>.a{fill:#fe0000;}.b{fill:#fff;}</style></defs><rect class="a" width="25" height="25" rx="2"/><g transform="translate(5.173 5.001)"><path class="b" d="M5.635,12.207l-.779.773a1.742,1.742,0,0,1-2.447,0,1.693,1.693,0,0,1,0-2.407L5.275,7.73c.594-.589,1.711-1.456,2.525-.649A.953.953,0,1,0,9.143,5.728c-1.384-1.374-3.43-1.12-5.211.648L1.066,9.22a3.6,3.6,0,0,0,0,5.113,3.655,3.655,0,0,0,5.133,0l.779-.773a.953.953,0,1,0-1.344-1.352ZM14.319,1.162A3.405,3.405,0,0,0,9.377.973l-.97.963A.953.953,0,1,0,9.751,3.289l.97-.963a1.544,1.544,0,0,1,2.255.19,1.692,1.692,0,0,1,0,2.407L9.919,7.956c-1.4,1.387-2.054.736-2.334.458A.953.953,0,1,0,6.242,9.767a3.007,3.007,0,0,0,2.142.953,4.2,4.2,0,0,0,2.878-1.411l3.057-3.033a3.6,3.6,0,0,0,0-5.113Z" transform="translate(0 0)"/></g></svg>