<svg xmlns="http://www.w3.org/2000/svg" width="23.81" height="23.829" viewBox="0 0 23.81 23.829"><defs><style>.a{fill:#1e7cf8;}</style></defs><g transform="translate(23.81) rotate(90)"><path class="a" d="M13.722,8.9,18.91,3.715,18.3,3.108a2.149,2.149,0,0,0-2.965,0L13.115,5.325a2.1,2.1,0,0,0,0,2.965Z" transform="translate(1.481 -2.515)"/><path class="a" d="M8.3,13.108a2.149,2.149,0,0,0-2.965,0L3.114,15.325a2.1,2.1,0,0,0,0,2.968l.611.6L8.9,13.72Z" transform="translate(-2.5 1.467)"/><path class="a" d="M24.033,4.87l-.495-.495L18.354,9.559l.909.907a.7.7,0,0,1,0,.99l-7.81,7.81a.717.717,0,0,1-.988,0l-.909-.909L4.38,23.544l.495.495a5.987,5.987,0,0,0,4.273,1.545c2.259,0,5.95-1,10.7-5.739C29.312,10.373,24.258,5.1,24.033,4.87Z" transform="translate(-1.752 -1.774)"/></g></svg>