<svg xmlns="http://www.w3.org/2000/svg" width="25.803" height="25.803" viewBox="0 0 25.803 25.803"><defs><style>.a{fill:#2ca7e0;}.b{fill:#fff;}</style></defs><path class="a" d="M24.653,1H3.15A2.157,2.157,0,0,0,1,3.15v21.5A2.157,2.157,0,0,0,3.15,26.8h21.5a2.157,2.157,0,0,0,2.15-2.15V3.15A2.157,2.157,0,0,0,24.653,1Z" transform="translate(-1 -1)"/><path class="b" d="M26.127,14.489a10.056,10.056,0,0,1-2.15.7,4.58,4.58,0,0,0,1.613-2.15,10.838,10.838,0,0,1-1.72.968l-.43-.43a2.724,2.724,0,0,0-2.15-1.075,3.168,3.168,0,0,0-3.225,3.225,1.657,1.657,0,0,0,.054.538h-.054c-3.225,0-5.376-.7-6.988-2.688a3.387,3.387,0,0,0-.538,1.613,3.288,3.288,0,0,0,1.613,2.688,3.387,3.387,0,0,1-1.613-.538c0,1.613,2.258,3.44,3.763,3.763-.538.538-2.473.054-2.688,0a3.436,3.436,0,0,0,3.225,2.15A6.5,6.5,0,0,1,10.806,24.6,4.069,4.069,0,0,1,10,24.541a10.539,10.539,0,0,0,5.376,1.4A8.907,8.907,0,0,0,24.514,16.8v-.538A7.21,7.21,0,0,0,26.127,14.489Z" transform="translate(-5.162 -6.318)"/></svg>