<?xml version="1.0" encoding="utf-8"?>
<!-- Generator: Adobe Illustrator 24.2.1, SVG Export Plug-In . SVG Version: 6.00 Build 0)  -->
<svg version="1.1" id="Layer_1" xmlns="http://www.w3.org/2000/svg" xmlns:xlink="http://www.w3.org/1999/xlink" x="0px" y="0px"
	 viewBox="0 0 200 200" style="enable-background:new 0 0 200 200;" xml:space="preserve">
<style type="text/css">
	.st0{fill:#95EDFF;}
	.st1{fill:#00B7FF;}
	.st2{fill:#FFFFFF;}
	.st3{fill:#3F7BF8;}
	.st4{fill:#99B2FB;}
	.st5{fill:#2400FE;}
</style>
<g>
	<g>
		<g>
			<path class="st1" d="M35.7,178.8c0-2.1,1.7-3.8,3.8-3.8l0,0c2.1,0,3.8,1.7,3.8,3.8l0,0c0,2.1-1.7,3.8-3.8,3.8l0,0
				C37.4,182.6,35.7,180.8,35.7,178.8z M35.7,163.7c0-2.1,1.7-3.8,3.8-3.8l0,0c2.1,0,3.8,1.7,3.8,3.8l0,0c0,2.1-1.7,3.8-3.8,3.8l0,0
				C37.4,167.4,35.7,165.7,35.7,163.7z M35.7,148.5c0-2.1,1.7-3.8,3.8-3.8l0,0c2.1,0,3.8,1.7,3.8,3.8l0,0c0,2.1-1.7,3.8-3.8,3.8l0,0
				C37.4,152.3,35.7,150.6,35.7,148.5z M35.7,133.4c0-2.1,1.7-3.8,3.8-3.8l0,0c2.1,0,3.8,1.7,3.8,3.8l0,0c0,2.1-1.7,3.8-3.8,3.8l0,0
				C37.4,137.2,35.7,135.5,35.7,133.4z"/>
		</g>
		<g>
			<path class="st1" d="M50.9,186.3c0-2.1,1.7-3.8,3.8-3.8l0,0c2.1,0,3.8,1.7,3.8,3.8l0,0c0,2.1-1.7,3.8-3.8,3.8l0,0
				C52.6,190.1,50.9,188.4,50.9,186.3z M50.9,171.2c0-2.1,1.7-3.8,3.8-3.8l0,0c2.1,0,3.8,1.7,3.8,3.8l0,0c0,2.1-1.7,3.8-3.8,3.8l0,0
				C52.6,175,50.9,173.3,50.9,171.2z M50.9,156.1c0-2.1,1.7-3.8,3.8-3.8l0,0c2.1,0,3.8,1.7,3.8,3.8l0,0c0,2.1-1.7,3.8-3.8,3.8l0,0
				C52.6,159.9,50.9,158.2,50.9,156.1z M50.9,141c0-2.1,1.7-3.8,3.8-3.8l0,0c2.1,0,3.8,1.7,3.8,3.8l0,0c0,2.1-1.7,3.8-3.8,3.8l0,0
				C52.6,144.7,50.9,143,50.9,141z M50.9,125.9c0-2.1,1.7-3.8,3.8-3.8l0,0c2.1,0,3.8,1.7,3.8,3.8l0,0c0,2.1-1.7,3.8-3.8,3.8l0,0
				C52.6,129.6,50.9,127.9,50.9,125.9z"/>
		</g>
		<g>
			<path class="st1" d="M66,178.8c0-2.1,1.7-3.8,3.8-3.8l0,0c2.1,0,3.8,1.7,3.8,3.8l0,0c0,2.1-1.7,3.8-3.8,3.8l0,0
				C67.7,182.6,66,180.8,66,178.8z M66,163.7c0-2.1,1.7-3.8,3.8-3.8l0,0c2.1,0,3.8,1.7,3.8,3.8l0,0c0,2.1-1.7,3.8-3.8,3.8l0,0
				C67.7,167.4,66,165.7,66,163.7z M66,148.5c0-2.1,1.7-3.8,3.8-3.8l0,0c2.1,0,3.8,1.7,3.8,3.8l0,0c0,2.1-1.7,3.8-3.8,3.8l0,0
				C67.7,152.3,66,150.6,66,148.5z M66,133.4c0-2.1,1.7-3.8,3.8-3.8l0,0c2.1,0,3.8,1.7,3.8,3.8l0,0c0,2.1-1.7,3.8-3.8,3.8l0,0
				C67.7,137.2,66,135.5,66,133.4z"/>
		</g>
		<g>
			<path class="st1" d="M81.1,186.3c0-2.1,1.7-3.8,3.8-3.8l0,0c2.1,0,3.8,1.7,3.8,3.8l0,0c0,2.1-1.7,3.8-3.8,3.8l0,0
				C82.8,190.1,81.1,188.4,81.1,186.3z M81.1,171.2c0-2.1,1.7-3.8,3.8-3.8l0,0c2.1,0,3.8,1.7,3.8,3.8l0,0c0,2.1-1.7,3.8-3.8,3.8l0,0
				C82.8,175,81.1,173.3,81.1,171.2z M81.1,156.1c0-2.1,1.7-3.8,3.8-3.8l0,0c2.1,0,3.8,1.7,3.8,3.8l0,0c0,2.1-1.7,3.8-3.8,3.8l0,0
				C82.8,159.9,81.1,158.2,81.1,156.1z M81.1,141c0-2.1,1.7-3.8,3.8-3.8l0,0c2.1,0,3.8,1.7,3.8,3.8l0,0c0,2.1-1.7,3.8-3.8,3.8l0,0
				C82.8,144.7,81.1,143,81.1,141z M81.1,125.9c0-2.1,1.7-3.8,3.8-3.8l0,0c2.1,0,3.8,1.7,3.8,3.8l0,0c0,2.1-1.7,3.8-3.8,3.8l0,0
				C82.8,129.6,81.1,127.9,81.1,125.9z"/>
		</g>
		<g>
			<path class="st1" d="M96.2,178.8c0-2.1,1.7-3.8,3.8-3.8l0,0c2.1,0,3.8,1.7,3.8,3.8l0,0c0,2.1-1.7,3.8-3.8,3.8l0,0
				C97.9,182.6,96.2,180.8,96.2,178.8z M96.2,163.7c0-2.1,1.7-3.8,3.8-3.8l0,0c2.1,0,3.8,1.7,3.8,3.8l0,0c0,2.1-1.7,3.8-3.8,3.8l0,0
				C97.9,167.4,96.2,165.7,96.2,163.7z M96.2,148.5c0-2.1,1.7-3.8,3.8-3.8l0,0c2.1,0,3.8,1.7,3.8,3.8l0,0c0,2.1-1.7,3.8-3.8,3.8l0,0
				C97.9,152.3,96.2,150.6,96.2,148.5z M96.2,133.4c0-2.1,1.7-3.8,3.8-3.8l0,0c2.1,0,3.8,1.7,3.8,3.8l0,0c0,2.1-1.7,3.8-3.8,3.8l0,0
				C97.9,137.2,96.2,135.5,96.2,133.4z"/>
		</g>
		<g>
			<path class="st1" d="M111.3,186.3c0-2.1,1.7-3.8,3.8-3.8l0,0c2.1,0,3.8,1.7,3.8,3.8l0,0c0,2.1-1.7,3.8-3.8,3.8l0,0
				C113,190.1,111.3,188.4,111.3,186.3z M111.3,171.2c0-2.1,1.7-3.8,3.8-3.8l0,0c2.1,0,3.8,1.7,3.8,3.8l0,0c0,2.1-1.7,3.8-3.8,3.8
				l0,0C113,175,111.3,173.3,111.3,171.2z M111.3,156.1c0-2.1,1.7-3.8,3.8-3.8l0,0c2.1,0,3.8,1.7,3.8,3.8l0,0c0,2.1-1.7,3.8-3.8,3.8
				l0,0C113,159.9,111.3,158.2,111.3,156.1z M111.3,141c0-2.1,1.7-3.8,3.8-3.8l0,0c2.1,0,3.8,1.7,3.8,3.8l0,0c0,2.1-1.7,3.8-3.8,3.8
				l0,0C113,144.7,111.3,143,111.3,141z M111.3,125.9c0-2.1,1.7-3.8,3.8-3.8l0,0c2.1,0,3.8,1.7,3.8,3.8l0,0c0,2.1-1.7,3.8-3.8,3.8
				l0,0C113,129.6,111.3,127.9,111.3,125.9z"/>
		</g>
		<g>
			<path class="st1" d="M126.5,178.8c0-2.1,1.7-3.8,3.8-3.8l0,0c2.1,0,3.8,1.7,3.8,3.8l0,0c0,2.1-1.7,3.8-3.8,3.8l0,0
				C128.2,182.6,126.5,180.8,126.5,178.8z M126.5,163.7c0-2.1,1.7-3.8,3.8-3.8l0,0c2.1,0,3.8,1.7,3.8,3.8l0,0c0,2.1-1.7,3.8-3.8,3.8
				l0,0C128.2,167.4,126.5,165.7,126.5,163.7z M126.5,148.5c0-2.1,1.7-3.8,3.8-3.8l0,0c2.1,0,3.8,1.7,3.8,3.8l0,0
				c0,2.1-1.7,3.8-3.8,3.8l0,0C128.2,152.3,126.5,150.6,126.5,148.5z M126.5,133.4c0-2.1,1.7-3.8,3.8-3.8l0,0c2.1,0,3.8,1.7,3.8,3.8
				l0,0c0,2.1-1.7,3.8-3.8,3.8l0,0C128.2,137.2,126.5,135.5,126.5,133.4z"/>
		</g>
		<g>
			<path class="st1" d="M141.6,186.3c0-2.1,1.7-3.8,3.8-3.8l0,0c2.1,0,3.8,1.7,3.8,3.8l0,0c0,2.1-1.7,3.8-3.8,3.8l0,0
				C143.3,190.1,141.6,188.4,141.6,186.3z M141.6,171.2c0-2.1,1.7-3.8,3.8-3.8l0,0c2.1,0,3.8,1.7,3.8,3.8l0,0c0,2.1-1.7,3.8-3.8,3.8
				l0,0C143.3,175,141.6,173.3,141.6,171.2z M141.6,156.1c0-2.1,1.7-3.8,3.8-3.8l0,0c2.1,0,3.8,1.7,3.8,3.8l0,0
				c0,2.1-1.7,3.8-3.8,3.8l0,0C143.3,159.9,141.6,158.2,141.6,156.1z M141.6,141c0-2.1,1.7-3.8,3.8-3.8l0,0c2.1,0,3.8,1.7,3.8,3.8
				l0,0c0,2.1-1.7,3.8-3.8,3.8l0,0C143.3,144.7,141.6,143,141.6,141z M141.6,125.9c0-2.1,1.7-3.8,3.8-3.8l0,0c2.1,0,3.8,1.7,3.8,3.8
				l0,0c0,2.1-1.7,3.8-3.8,3.8l0,0C143.3,129.6,141.6,127.9,141.6,125.9z"/>
		</g>
		<g>
			<path class="st1" d="M156.7,178.8c0-2.1,1.7-3.8,3.8-3.8l0,0c2.1,0,3.8,1.7,3.8,3.8l0,0c0,2.1-1.7,3.8-3.8,3.8l0,0
				C158.4,182.6,156.7,180.8,156.7,178.8z M156.7,163.7c0-2.1,1.7-3.8,3.8-3.8l0,0c2.1,0,3.8,1.7,3.8,3.8l0,0c0,2.1-1.7,3.8-3.8,3.8
				l0,0C158.4,167.4,156.7,165.7,156.7,163.7z M156.7,148.5c0-2.1,1.7-3.8,3.8-3.8l0,0c2.1,0,3.8,1.7,3.8,3.8l0,0
				c0,2.1-1.7,3.8-3.8,3.8l0,0C158.4,152.3,156.7,150.6,156.7,148.5z M156.7,133.4c0-2.1,1.7-3.8,3.8-3.8l0,0c2.1,0,3.8,1.7,3.8,3.8
				l0,0c0,2.1-1.7,3.8-3.8,3.8l0,0C158.4,137.2,156.7,135.5,156.7,133.4z"/>
		</g>
		<g>
			<path class="st4" d="M171.2,69.6c9.3,0,16.7,8.1,15.6,17.6c-0.8,6.8-6.1,12.4-12.8,13.6c-6.3,1.1-11.9-1.6-15.3-6.1
				c-5.2,4.8-12.1,7.8-19.7,7.8c-3.1,0-6-0.5-8.8-1.3c-5.6,3.7-12.4,5.8-19.6,5.8c-6.8,0-13.1-1.9-18.5-5.2
				c-4.5-2.7-10.1-3.2-15-1.2c-4.1,1.7-8.6,2.6-13.2,2.6c-6.3,0-12.2-1.6-17.3-4.5c-4.5,3.6-10.6,5.3-17,4.1
				c-8.1-1.6-14.7-8.3-16.1-16.5c-2-11.2,5.1-21.1,15.2-23.7c1.8-12.8,7.2-50.1,53.9-50.1c12.4,0,23.1,10.8,28.4,21
				c4.2-13.4,12.7-17.2,23.1-17.2c22.7,0,26.5,30,26.5,30C179.4,50.2,170.1,69.6,171.2,69.6z"/>
			<path class="st3" d="M110.6,110.7c-7.2,0-14.3-2-20.5-5.7c-3.5-2.1-7.9-2.4-11.6-0.9c-10.2,4.1-21.7,3.7-31.6-1
				c-5.3,3.4-11.7,4.6-18.1,3.4c-9.7-2-17.3-9.8-19.1-19.6c-0.3-1.4-0.4-2.9-0.4-4.4c0-10.1,6.4-19.3,15.9-22.9
				c1.8-12.1,6.1-29.4,21.7-40.8c1.6-1.2,4.1-0.8,5.3,0.8c0.6,0.8,0.8,1.8,0.7,2.8c-0.2,1-0.7,1.9-1.5,2.5c-15.3,11-18,30.7-19,38.1
				c-0.2,1.5-1.3,2.8-2.8,3.1c-7.4,1.9-12.7,8.6-12.7,16.3c0,1,0.1,2,0.3,3.1c1.1,6.6,6.5,12.2,13.1,13.5c1.2,0.2,2.3,0.3,3.5,0.3
				c3.9,0,7.5-1.3,10.5-3.7c1.2-0.9,2.9-1.1,4.2-0.3c8.4,4.7,18.5,5.3,27.3,1.7c5.9-2.4,12.9-1.9,18.4,1.5c5,3,10.7,4.6,16.6,4.6
				c6.2,0,12.3-1.8,17.5-5.2c0.9-0.6,2.1-0.8,3.2-0.5c8.5,2.7,18.1,0.6,24.8-5.6c0.8-0.8,1.8-1.1,2.9-1c1.1,0.1,2,0.6,2.7,1.5
				c2.3,3.1,5.7,4.8,9.5,4.8c0.8,0,1.4-0.1,2.1-0.2c5-0.8,9.2-5.3,9.7-10.2c0.1-0.5,0.1-1.1,0.1-1.5c0-6.6-5.4-11.9-11.9-11.9
				c0,0-0.1,0-0.2,0c-1.4,0-3-1.3-3.3-2.3c-0.4-0.8-0.4-1.2-0.4-1.6c0-0.1,0-0.1,0-0.2c0.1-1.1,0.3-1.8,0.5-2.6
				c0.1-0.5,0.2-0.9,0.3-1.6c0.4-2,0.6-3.7,0.6-5.2c-0.3-4.1-0.6-8.1-9-10.2c-1.5-0.3-2.8-1.6-2.9-3.2l0,0c0,0,0-0.1,0-0.1
				c-0.2-1.5-0.6-3.1-0.8-4.1c-0.6-2.4-1.7-6-3.5-9.6C147.8,24.1,142,20,134,20c-9.8,0.3-15.5,2.6-19.5,14.6
				c-0.5,1.5-1.7,2.5-3.3,2.6c-1.5,0.1-3-0.6-3.7-2c-4.9-9.4-15-19-24.8-19c-1.7,0-3.3,0-5.1,0.2c-2,0.1-3.9-1.5-4-3.6
				c-0.1-2.1,1.5-3.9,3.5-4c1.8-0.1,3.6-0.2,5.3-0.2c13.7,0.2,23.2,10.4,27.7,16.6c4.8-8.5,13.4-13.2,23.8-12.8h0.1
				c14.5,0,21.9,10.7,25,17c2.6,5.2,4,10.3,4.6,13.6c9.1,2.8,12.9,10.5,12.5,17c0,1.9-0.2,4-0.7,6.2c8.8,2,15.1,9.9,15.1,19
				c0,0.8,0,1.5-0.2,2.3c-1,8.5-7.6,15.4-16,16.9c-6,1-11.9-0.7-16.3-4.6c-7.9,5.8-18,7.8-27.5,5.3
				C124.7,108.8,117.7,110.7,110.6,110.7v-0.2V110.7z M62.5,19c-1.7,0-3.1-1.1-3.6-2.6c-0.3-1-0.2-2,0.3-2.9
				c0.5-0.9,1.2-1.5,2.2-1.8c2-0.6,4.1,0.5,4.7,2.5c0.3,0.9,0.2,2-0.3,2.9c-0.5,0.9-1.2,1.5-2.2,1.8C63.3,18.9,62.9,19,62.5,19z"/>
		</g>
		<g>
			<g>
				<path class="st3" d="M29.3,79.9c-1.7,0-3.2-1.1-3.7-2.8c-0.8-3.2-1.2-6.5-1.2-9.8c0-1.8,0.1-3.5,0.3-5.2
					c0.3-2.1,2.2-3.5,4.2-3.3c2.1,0.3,3.5,2.2,3.3,4.2c-0.2,1.4-0.3,2.8-0.3,4.2c0,2.7,0.3,5.4,1,7.9c0.5,2-0.7,4.1-2.7,4.6
					C29.9,79.9,29.6,79.9,29.3,79.9z"/>
			</g>
		</g>
	</g>
</g>
</svg>
