<?xml version="1.0" encoding="utf-8"?>
<!-- Generator: Adobe Illustrator 24.2.1, SVG Export Plug-In . SVG Version: 6.00 Build 0)  -->
<svg version="1.1" id="Layer_1" xmlns="http://www.w3.org/2000/svg" xmlns:xlink="http://www.w3.org/1999/xlink" x="0px" y="0px"
	 viewBox="0 0 200 200" style="enable-background:new 0 0 200 200;" xml:space="preserve">
<style type="text/css">
	.st0{fill:#95EDFF;}
	.st1{fill:#00B7FF;}
	.st2{fill:#FFFFFF;}
	.st3{fill:#3F7BF8;}
	.st4{fill:#99B2FB;}
	.st5{fill:#2400FE;}
</style>
<g>
	<g>
		<path class="st0" d="M158.1,129.2c0,36.5-29.7,66.2-66.4,66.2s-66.4-29.6-66.4-66.2S91.7,4.5,91.7,4.5S158.1,92.7,158.1,129.2z"/>
		<path class="st1" d="M91.7,199.5c-38.9,0-70.5-31.5-70.5-70.3c0-9.9,4-22.7,12.5-40.4c1-2,3.5-2.9,5.5-1.9c1,0.5,1.8,1.3,2.1,2.4
			c0.4,1.1,0.3,2.2-0.2,3.2c-7.6,15.6-11.7,28.6-11.7,36.7c0,34.2,28,62,62.3,62c34.3,0,62.2-27.9,62.3-62
			c0.2-13.5-12-41.2-32.6-73.9c-11.8-19-23.6-35.5-29.7-43.8C84.3,21.6,70.1,41.7,57,63.6c-1.2,1.9-3.8,2.6-5.7,1.4
			c-0.9-0.5-1.6-1.5-1.9-2.5c-0.3-1.1-0.1-2.2,0.5-3.2c16.7-27.8,35-52.5,38.5-57.2L88.4,2C90-0.1,93.4-0.1,95,2
			c1.8,2.4,17.5,23.4,33.4,48.9c14.4,23.3,33.6,56.8,33.8,78.3C162.3,168,130.6,199.5,91.7,199.5z M45.1,80.1c-0.7,0-1.4-0.2-2-0.5
			c-2-1.1-2.7-3.6-1.6-5.6c0,0,0,0,0,0c1.1-1.9,3.7-2.7,5.6-1.6c1,0.5,1.7,1.4,2,2.5c0.3,1,0.2,2.2-0.4,3.2
			C48,79.2,46.6,80.1,45.1,80.1z"/>
	</g>
	<g>
		<path class="st0" d="M91.7,178.8c-27.5,0-49.8-22.2-49.8-49.6L91.7,178.8z"/>
		<path class="st1" d="M91.7,182.9c-29.8,0-54-24.1-54-53.7c0-2.3,1.9-4.2,4.2-4.2c2.3,0,4.1,1.9,4.1,4.2c0,25,20.5,45.4,45.7,45.4
			c2.3,0,4.2,1.9,4.2,4.2C95.8,181.1,94,182.9,91.7,182.9z"/>
	</g>
	<g>
		<g>
			<path class="st2" d="M60.6,104.1c0-29.8,24.2-54,53.9-54c29.8,0,54,24.2,54,54c0,29.8-24.2,53.9-54,53.9
				C84.7,158,60.6,133.9,60.6,104.1z"/>
			<path class="st3" d="M114.5,162.2c-32,0-58.1-26.1-58.1-58.1c0-32,26.1-58.1,58.1-58.1c32,0,58.1,26.1,58.1,58.1
				C172.6,136.1,146.6,162.2,114.5,162.2z M114.5,54.3c-27.5,0-49.8,22.3-49.8,49.8c0,27.5,22.3,49.8,49.8,49.8
				c27.5,0,49.8-22.3,49.8-49.8C164.3,76.6,142,54.3,114.5,54.3z"/>
		</g>
		<g>
			<g>
				<path class="st4" d="M114.5,133.1c-3.3,0-6.5-1.3-8.8-3.6L85,108.8c-4.9-4.9-4.9-12.7,0-17.6c4.9-4.9,12.7-4.9,17.6,0l11.1,11.1
					l39-45.5c4.4-5.3,12.2-6,17.5-1.7c5.3,4.4,6,12.2,1.7,17.5l-47.7,56c-2.2,2.7-5.5,4.3-9,4.5
					C114.9,133.1,114.7,133.1,114.5,133.1z"/>
				<path class="st3" d="M114.5,137.3c-4.4,0-8.6-1.8-11.7-4.9L82,111.7c-3.2-3.2-4.9-7.3-4.9-11.7c0-4.4,1.7-8.6,4.9-11.7
					c3.1-3.1,7.3-4.9,11.7-4.9c4.4,0,8.6,1.7,11.7,4.9l7.9,7.9L149.5,54c3.2-3.8,7.8-6,12.7-6h0.1c3.8,0,7.6,1.4,10.5,3.8
					c3.8,3.2,6,7.8,6,12.8c0,3.8-1.4,7.6-3.8,10.6l-22.9,26.9c-1.5,1.7-4.2,1.9-5.9,0.5c-1.7-1.5-1.9-4.1-0.5-5.9l22.9-26.9
					c1.2-1.5,1.9-3.3,1.9-5.3c0-2.5-1.1-4.8-3-6.4c-1.5-1.2-3.3-1.9-5.3-1.9c-2.5,0-4.8,1.1-6.4,3l0,0l-39,45.5
					c-0.7,0.9-1.9,1.4-3,1.5h-0.2c-1.1,0-2.2-0.5-2.9-1.2l-11.1-11c-3.1-3.2-8.6-3.2-11.7,0c-1.5,1.5-2.4,3.6-2.4,5.9
					c0,2.2,0.9,4.3,2.4,5.9l20.7,20.8c1.6,1.6,3.9,2.4,6.1,2.4c0,0,0.1,0,0.2,0c2.3-0.1,4.5-1.2,6-3.1l3.3-3.9
					c1.4-1.7,4.2-1.9,5.8-0.5c1.7,1.5,1.9,4.1,0.5,5.9l-3.3,3.8c-2.9,3.6-7.3,5.8-12,6C115.1,137.3,114.8,137.3,114.5,137.3z
					 M138.2,116.3c-1,0-1.9-0.3-2.7-1c-1.7-1.5-2-4.1-0.5-5.9c1.4-1.7,4.2-1.9,5.8-0.5c1.7,1.5,2,4.1,0.5,5.9
					C140.5,115.8,139.4,116.3,138.2,116.3z"/>
			</g>
		</g>
	</g>
</g>
</svg>
