<?xml version="1.0" encoding="utf-8"?>
<!-- Generator: Adobe Illustrator 24.2.1, SVG Export Plug-In . SVG Version: 6.00 Build 0)  -->
<svg version="1.1" id="Layer_1" xmlns="http://www.w3.org/2000/svg" xmlns:xlink="http://www.w3.org/1999/xlink" x="0px" y="0px"
	 viewBox="0 0 200 200" style="enable-background:new 0 0 200 200;" xml:space="preserve">
<style type="text/css">
	.st0{fill:#95EDFF;}
	.st1{fill:#00B7FF;}
	.st2{fill:#FFFFFF;}
	.st3{fill:#3F7BF8;}
	.st4{fill:#99B2FB;}
	.st5{fill:#2400FE;}
</style>
<g>
	<g>
		<rect x="19.3" y="42.5" class="st2" width="162.3" height="42.3"/>
		<path class="st1" d="M181.6,88.4H19.3c-1.9,0-3.5-1.6-3.5-3.5V42.5c0-2,1.6-3.5,3.5-3.5h162.3c1.9,0,3.5,1.6,3.5,3.5v42.3
			C185.1,86.8,183.5,88.4,181.6,88.4z M22.9,81.3h155.2V46.1H22.9V81.3z"/>
	</g>
	<g>
		<rect x="19.3" y="84.9" class="st0" width="162.3" height="63.5"/>
		<path class="st1" d="M181.6,151.9H19.3c-1.9,0-3.5-1.6-3.5-3.5V84.9c0-1.9,1.6-3.5,3.5-3.5h162.3c1.9,0,3.5,1.6,3.5,3.5v63.5
			C185.1,150.3,183.5,151.9,181.6,151.9z M22.9,144.8h155.2V88.4H22.9V144.8z"/>
	</g>
	<g>
		<path class="st4" d="M181.6,14.3h-81.1c-7.8,0-14.1,6.3-14.1,14.1l0,116.4h28.2V42.5h67V14.3z"/>
		<path class="st3" d="M114.6,148.3H86.3c-1.9,0-3.5-1.6-3.5-3.5V28.4c0-9.7,7.9-17.6,17.6-17.6h81.1c1.9,0,3.5,1.6,3.5,3.5
			c0,1.9-1.6,3.5-3.5,3.5h-81.1c-5.8,0-10.6,4.7-10.6,10.6v112.9H111V42.5c0-2,1.6-3.5,3.5-3.5h67c1.9,0,3.5,1.6,3.5,3.5
			s-1.6,3.5-3.5,3.5h-63.5v98.8C118.1,146.8,116.5,148.3,114.6,148.3z"/>
	</g>
	<g>
		<g>
			<path class="st2" d="M47.7,169.6l0.7,0.4c5.9,3.9,13.6,3.9,19.6,0l1.6-1.1c5.9-3.9,13.6-3.9,19.6,0l1.6,1.1
				c5.9,3.9,13.6,3.9,19.6,0l1.6-1.1c5.9-4,13.6-4,19.6,0l1.6,1.1c5.9,3.9,13.6,3.9,19.6,0l0.7-0.4c6.4-4.3,14.8-3.9,20.8,0.9l7.6,3
				v-25.2l-7.6-6.1c-6-4.8-14.4-5.2-20.8-0.9l-0.7,0.4c-5.9,3.9-13.6,3.9-19.6,0l-1.6-1.1c-5.9-4-13.6-4-19.6,0l-1.6,1.1
				c-5.9,3.9-13.6,3.9-19.6,0l-1.6-1.1c-5.9-4-13.6-3.9-19.6,0l-1.6,1.1c-5.9,3.9-13.6,3.9-19.6,0l-0.7-0.4
				c-6.4-4.3-14.8-3.9-20.8,0.9l-7.6,6.1v25.2l7.6-3C32.9,165.7,41.3,165.4,47.7,169.6z"/>
			<path class="st3" d="M181.6,177.1c-0.5,0-0.9-0.1-1.3-0.2l-8.4-3.5c-2.5-2-5.6-3.1-8.9-3.1c-2.8,0-5.5,0.8-7.8,2.4l-0.6,0.4
				c-7,4.7-16.5,4.7-23.5,0l-1.6-1.1c-4.7-3.1-11-3.1-15.7,0l-1.6,1.1c-7,4.7-16.5,4.7-23.5,0l-1.6-1.1c-4.7-3.1-11-3.1-15.7,0
				l-1.6,1.1c-7,4.7-16.5,4.7-23.5,0l-0.6-0.4c-5-3.3-12-3-16.6,0.7l-0.9,0.5l-7.6,3c-1.1,0.4-2.3,0.3-3.3-0.4
				c-1-0.6-1.6-1.7-1.6-2.9v-25.2c0-1.1,0.5-2.1,1.3-2.8l7.5-6.1c7-5.6,17.5-6.1,25-1.1l0.6,0.4c0.5,0.3,1,0.6,1.6,0.9
				c0.8,0.4,1.5,1.1,1.8,2c0.3,0.9,0.2,1.9-0.2,2.7c-0.8,1.7-3,2.4-4.7,1.6c-0.8-0.4-1.6-0.9-2.4-1.4l-0.6-0.4c-5-3.3-12-3-16.6,0.7
				l-6.2,5v18.3l2.3-0.9c3.6-2.7,8.1-4.3,12.7-4.3H38c4.2,0,8.2,1.2,11.7,3.5l0.6,0.5c2.3,1.6,5,2.4,7.8,2.4c2.8,0,5.5-0.8,7.8-2.4
				l1.6-1.1c3.5-2.3,7.5-3.6,11.7-3.6h0.1c4.2,0,8.2,1.2,11.7,3.6l1.6,1.1c2.3,1.6,5,2.4,7.8,2.4c2.8,0,5.5-0.8,7.8-2.4l1.6-1.1
				c3.5-2.3,7.5-3.6,11.7-3.6h0.1c4.2,0,8.2,1.2,11.7,3.6l1.6,1.1c4.7,3.1,11,3.1,15.7,0l0.6-0.4c7.3-4.9,17.5-4.6,24.5,0.7l2.3,0.9
				V150l-6.2-5c-2.5-2-5.6-3.1-8.8-3.1c-2.8,0-5.5,0.8-7.8,2.4l-0.6,0.4c-7,4.7-16.5,4.7-23.5,0l-1.6-1.1c-2.3-1.5-5-2.4-7.8-2.4
				c-2.8,0-5.5,0.8-7.8,2.4l-1.6,1.1c-7,4.7-16.5,4.7-23.5,0l-1.6-1.1c-2.9-1.9-6.3-2.8-9.8-2.2c-1.9,0.3-3.7-1.1-4-3
				c-0.1-0.9,0.1-1.9,0.7-2.6c0.6-0.7,1.4-1.2,2.3-1.4c5.2-0.7,10.4,0.5,14.8,3.4l1.6,1.1c4.7,3.1,11,3.1,15.7,0l1.6-1.1
				c6.9-4.7,16.5-4.7,23.5,0l1.6,1.1c4.7,3.1,11,3.1,15.7,0l0.6-0.4c7.4-5,18-4.6,25,1.1l7.6,6.1c0.8,0.7,1.3,1.7,1.3,2.8v25.2
				c0,1.2-0.6,2.3-1.6,2.9C183,176.9,182.3,177.1,181.6,177.1z M64.1,147.3c-1.5,0-2.9-1-3.4-2.4c-0.3-0.9-0.2-1.8,0.1-2.7
				c0.4-0.8,1.1-1.5,2-1.8c1.8-0.6,3.9,0.4,4.5,2.2c0.6,1.8-0.3,3.8-2.2,4.5C64.8,147.2,64.4,147.3,64.1,147.3z"/>
		</g>
		<g>
			<path class="st4" d="M174,159.9l7.6,6.5v10.1H19.3v-10.1l7.6-6.5c6-4.8,14.4-5.2,20.8-0.9l0.7,0.4c5.9,3.9,13.6,3.9,19.6,0
				l1.6-1.1c5.9-3.9,13.6-3.9,19.6,0l1.6,1.1c5.9,3.9,13.6,3.9,19.6,0l1.6-1.1c5.9-3.9,13.6-3.9,19.6,0l1.6,1.1
				c5.9,3.9,13.6,3.9,19.6,0l0.7-0.4C159.6,154.8,168,155.1,174,159.9z"/>
			<path class="st3" d="M181.6,180.1H19.3c-1.9,0-3.5-1.6-3.5-3.5v-10.1c0-1,0.4-2,1.2-2.7l7.6-6.5c7.3-5.9,17.4-6.3,25.1-1.2
				l0.7,0.4c4.8,3.2,10.9,3.2,15.7,0l1.6-1.1c7.1-4.8,16.4-4.8,23.5,0l1.6,1.1c4.7,3.2,10.9,3.2,15.6,0l1.6-1.1
				c7.1-4.8,16.4-4.8,23.5,0l1.6,1.1c4.7,3.2,10.9,3.2,15.6,0l0.7-0.4c7.7-5.1,17.7-4.7,25,1.1c0,0,0.1,0.1,0.1,0.1l7.6,6.5
				c0.8,0.7,1.2,1.6,1.2,2.7v10.1C185.1,178.5,183.5,180.1,181.6,180.1z M22.9,173h155.2v-5l-6.3-5.4c-4.8-3.8-11.5-4.1-16.6-0.7
				l-0.7,0.4c-7.1,4.8-16.3,4.8-23.5,0l-1.6-1.1c-4.8-3.2-10.9-3.2-15.6,0l-1.6,1.1c-7.1,4.8-16.3,4.8-23.5,0l-1.6-1.1
				c-4.8-3.2-10.9-3.2-15.6,0l-1.6,1.1c-7.1,4.8-16.3,4.8-23.5,0l-0.7-0.4c-5.1-3.4-11.8-3.1-16.6,0.7l-6.2,5.4V173z"/>
		</g>
	</g>
	<g>
		<path class="st1" d="M58.1,102.5H33.4c-1.9,0-3.5-1.6-3.5-3.5c0-2,1.6-3.5,3.5-3.5h24.7c1.9,0,3.5,1.6,3.5,3.5
			C61.7,100.9,60.1,102.5,58.1,102.5z"/>
	</g>
	<g>
		<path class="st1" d="M181.6,102.5h-38.8c-1.9,0-3.5-1.6-3.5-3.5c0-2,1.6-3.5,3.5-3.5h38.8c1.9,0,3.5,1.6,3.5,3.5
			C185.1,100.9,183.5,102.5,181.6,102.5z"/>
	</g>
	<g>
		<path class="st1" d="M181.6,127.2h-17.6c-1.9,0-3.5-1.6-3.5-3.5s1.6-3.5,3.5-3.5h17.6c1.9,0,3.5,1.6,3.5,3.5
			S183.5,127.2,181.6,127.2z"/>
	</g>
	<g>
		<path class="st1" d="M149.8,116.6h-17.6c-1.9,0-3.5-1.6-3.5-3.5c0-2,1.6-3.5,3.5-3.5h17.6c1.9,0,3.5,1.6,3.5,3.5
			C153.4,115,151.8,116.6,149.8,116.6z"/>
	</g>
	<g>
		<path class="st1" d="M72.2,116.6H47.5c-1.9,0-3.5-1.6-3.5-3.5c0-2,1.6-3.5,3.5-3.5h24.7c1.9,0,3.5,1.6,3.5,3.5
			C75.8,115,74.2,116.6,72.2,116.6z"/>
	</g>
	<g>
		<path class="st1" d="M68.7,130.7H58.1c-1.9,0-3.5-1.6-3.5-3.5c0-1.9,1.6-3.5,3.5-3.5h10.6c1.9,0,3.5,1.6,3.5,3.5
			C72.2,129.1,70.7,130.7,68.7,130.7z"/>
	</g>
</g>
<circle class="st2" cx="100.5" cy="103.3" r="53.4"/>
<g>
	<path class="st5" d="M99.1,140c-2.2,0-4.3-0.8-5.9-2.3l-31.5-30c-3.4-3.2-3.5-8.6-0.3-12c3.2-3.4,8.6-3.5,12-0.3l24.8,23.6l52-64.9
		c2.9-3.7,8.3-4.3,12-1.3c3.7,2.9,4.3,8.3,1.3,12l-57.8,72.1c-1.5,1.9-3.7,3-6.1,3.2C99.5,140,99.3,140,99.1,140z"/>
</g>
</svg>
