<?xml version="1.0" encoding="utf-8"?>
<!-- Generator: Adobe Illustrator 24.2.1, SVG Export Plug-In . SVG Version: 6.00 Build 0)  -->
<svg version="1.1" id="Layer_1" xmlns="http://www.w3.org/2000/svg" xmlns:xlink="http://www.w3.org/1999/xlink" x="0px" y="0px"
	 viewBox="0 0 200 200" style="enable-background:new 0 0 200 200;" xml:space="preserve">
<style type="text/css">
	.st0{fill:#95EDFF;}
	.st1{fill:#00B7FF;}
	.st2{fill:#FFFFFF;}
	.st3{fill:#3F7BF8;}
	.st4{fill:#99B2FB;}
	.st5{fill:#2400FE;}
</style>
<g>
	<g>
		<g>
			<path class="st0" d="M162,129.1c0,36.4-29.6,65.9-66.1,65.9s-66.1-29.5-66.1-65.9S95.9,4.9,95.9,4.9S162,92.7,162,129.1z"/>
			<path class="st1" d="M95.9,199.1c-38.7,0-70.2-31.4-70.2-70c0-9.9,4-22.6,12.5-40.2c0.9-2,3.5-2.9,5.5-1.9c2,1,2.9,3.5,1.9,5.5
				C38,108,33.9,121,33.9,129.1c0.1,34,27.8,61.7,62,61.8c34.1-0.1,61.9-27.8,62-61.8c0.2-13.5-11.9-41-32.4-73.5
				c-11.8-18.9-23.5-35.4-29.5-43.6C88.5,22,74.4,42,61.3,63.8l0,0c-1.2,1.9-3.8,2.5-5.7,1.4c-1.9-1.2-2.6-3.7-1.4-5.7
				c17.7-29.5,37.5-56,38.4-57.1c1.6-2.1,5-2.1,6.6,0c0.1,0.1,16.8,22.3,33.3,48.7c14.3,23.2,33.5,56.6,33.7,77.9
				C166.1,167.7,134.6,199.1,95.9,199.1z M49.5,80.1c-0.7,0-1.4-0.2-2-0.5c-0.9-0.5-1.7-1.4-1.9-2.5c-0.3-1-0.2-2.1,0.3-3.1
				c1.1-1.9,3.7-2.7,5.6-1.6c2,1.1,2.7,3.6,1.6,5.6c0,0,0,0,0,0C52.3,79.3,51,80.1,49.5,80.1z"/>
		</g>
		<g>
			<path class="st0" d="M95.9,178.4c-27.3,0-49.6-22.1-49.6-49.4L95.9,178.4z"/>
			<path class="st1" d="M95.9,182.6L95.9,182.6c-29.6,0-53.7-24-53.7-53.5c0-2.3,1.9-4.1,4.1-4.1c2.3,0,4.1,1.9,4.1,4.1
				c0,24.9,20.4,45.2,45.4,45.2h0c2.3,0,4.1,1.9,4.1,4.1S98.1,182.6,95.9,182.6z"/>
		</g>
		<g>
			<g>
				<path class="st2" d="M62.8,104.1c0-29.7,24-53.7,53.7-53.7c29.7,0,53.7,24,53.7,53.7c0,29.7-24,53.7-53.7,53.7
					C86.9,157.8,62.8,133.7,62.8,104.1z"/>
				<path class="st3" d="M116.5,161.9c-31.9,0-57.8-25.9-57.8-57.8c0-31.9,25.9-57.8,57.8-57.8s57.8,25.9,57.8,57.8
					C174.4,136,148.4,161.9,116.5,161.9z M116.5,54.5C89.2,54.5,67,76.7,67,104.1c0,27.3,22.2,49.6,49.6,49.6
					c27.3,0,49.6-22.2,49.6-49.6C166.1,76.7,143.9,54.5,116.5,54.5z"/>
			</g>
		</g>
	</g>
	<g>
		<g>
			<path class="st4" d="M83.5,104.1c0-18.3,14.8-33,33-33s33,14.8,33,33c0,18.3-14.8,33-33,33S83.5,122.3,83.5,104.1z"/>
			<path class="st3" d="M116.5,141.3c-20.5,0-37.2-16.7-37.2-37.2c0-20.5,16.7-37.2,37.2-37.2s37.2,16.7,37.2,37.2
				C153.7,124.6,137,141.3,116.5,141.3z M116.5,75.2c-15.9,0-28.9,13-28.9,28.9c0,15.9,13,28.9,28.9,28.9c15.9,0,28.9-13,28.9-28.9
				C145.4,88.1,132.5,75.2,116.5,75.2z"/>
		</g>
	</g>
	<g>
		<g>
			<g>
				<path class="st5" d="M106.4,122c-2-1.1-2.7-3.6-1.6-5.6l0,0c1.1-2,3.7-2.7,5.7-1.6l0,0c2,1.1,2.7,3.6,1.5,5.7l0,0
					c-0.7,1.3-2.1,2.1-3.6,2.1l0,0C107.7,122.6,107,122.4,106.4,122z M121.4,120.4c-1.2-1.9-0.5-4.5,1.4-5.6l0,0
					c2-1.2,4.5-0.5,5.7,1.4l0,0c1.2,2,0.5,4.5-1.5,5.7l0,0c-0.6,0.4-1.4,0.6-2.1,0.6l0,0C123.5,122.5,122.1,121.7,121.4,120.4z
					 M95.9,104.3L95.9,104.3L95.9,104.3c0-0.1,0-0.1,0-0.2l0,0c0,0,0,0,0-0.1l0,0c0-2.3,1.9-4.1,4.1-4.1l0,0c2.3,0,4.1,1.9,4.1,4.1
					l0,0c0,0,0,0.1,0,0.1l0,0c0,0,0,0,0,0l0,0c0,2.3-1.8,4.2-4.1,4.2l0,0h0l0,0C97.7,108.4,95.9,106.6,95.9,104.3z M128.9,104
					c0-2.3,1.8-4.1,4.1-4.1l0,0c2.3,0,4.2,1.8,4.2,4.1l0,0c0,2.3-1.8,4.1-4.1,4.2l0,0C130.8,108.1,128.9,106.3,128.9,104z
					 M104.1,104.2L104.1,104.2L104.1,104.2L104.1,104.2z M104.7,91.9c-1.2-2-0.5-4.5,1.5-5.7l0,0c0,0,0,0,0,0l0,0
					c2-1.2,4.5-0.5,5.7,1.5l0,0c1.1,1.9,0.5,4.5-1.5,5.6l0,0c-0.6,0.4-1.4,0.6-2.1,0.6l0,0C106.8,93.9,105.4,93.2,104.7,91.9z
					 M122.7,93.3L122.7,93.3c-2-1.1-2.7-3.6-1.5-5.6l0,0c1.1-2,3.6-2.7,5.6-1.5l0,0l0,0l0,0c2,1.2,2.7,3.7,1.5,5.6l0,0
					c-0.7,1.4-2.1,2.1-3.6,2.1l0,0C124,93.9,123.3,93.7,122.7,93.3z"/>
			</g>
		</g>
	</g>
	<g>
		<g>
			<path class="st5" d="M116.5,108.2c-1.1,0-2.1-0.4-2.9-1.2c-0.8-0.8-1.2-1.8-1.2-2.9c0-0.5,0.1-1.1,0.3-1.6c0.2-0.5,0.5-1,0.9-1.4
				c0.4-0.4,0.9-0.7,1.4-0.9c1.5-0.7,3.3-0.3,4.5,0.9c0.4,0.4,0.7,0.9,0.9,1.4c0.2,0.5,0.3,1,0.3,1.6c0,0.5-0.1,1.1-0.3,1.6
				c-0.2,0.5-0.5,0.9-0.9,1.4c-0.4,0.4-0.9,0.7-1.4,0.9C117.6,108.1,117.1,108.2,116.5,108.2z"/>
		</g>
	</g>
	<g>
		<g>
			<path class="st3" d="M153.7,108.2h-4.1c-2.3,0-4.1-1.8-4.1-4.1c0-2.3,1.9-4.1,4.1-4.1h4.1c2.3,0,4.1,1.8,4.1,4.1
				C157.8,106.4,156,108.2,153.7,108.2z"/>
		</g>
	</g>
	<g>
		<g>
			<path class="st3" d="M83.5,108.2h-4.1c-2.3,0-4.1-1.8-4.1-4.1c0-2.3,1.8-4.1,4.1-4.1h4.1c2.3,0,4.1,1.8,4.1,4.1
				C87.6,106.4,85.8,108.2,83.5,108.2z"/>
		</g>
	</g>
	<g>
		<g>
			<path class="st3" d="M116.5,75.2c-2.3,0-4.1-1.8-4.1-4.1v-4.1c0-2.3,1.9-4.1,4.1-4.1s4.1,1.8,4.1,4.1V71
				C120.7,73.3,118.8,75.2,116.5,75.2z"/>
		</g>
	</g>
	<g>
		<g>
			<path class="st3" d="M116.5,145.4c-2.3,0-4.1-1.8-4.1-4.1v-4.1c0-2.3,1.9-4.1,4.1-4.1s4.1,1.8,4.1,4.1v4.1
				C120.7,143.5,118.8,145.4,116.5,145.4z"/>
		</g>
	</g>
	<g>
		<g>
			<path class="st3" d="M139.9,84.8c-1.1,0-2.1-0.4-2.9-1.2c-1.6-1.6-1.6-4.2,0-5.8l2.9-2.9c1.6-1.6,4.2-1.6,5.8,0
				c1.6,1.6,1.6,4.2,0,5.8l-2.9,2.9C142,84.4,140.9,84.8,139.9,84.8z"/>
		</g>
	</g>
	<g>
		<g>
			<path class="st3" d="M90.2,134.5c-1.1,0-2.1-0.4-2.9-1.2c-1.6-1.6-1.6-4.2,0-5.8l2.9-2.9c1.6-1.6,4.2-1.6,5.8,0
				c1.6,1.6,1.6,4.2,0,5.8l-2.9,2.9C92.3,134.1,91.3,134.5,90.2,134.5z"/>
		</g>
	</g>
	<g>
		<g>
			<path class="st3" d="M142.8,134.5c-1.1,0-2.1-0.4-2.9-1.2l-2.9-2.9c-1.6-1.6-1.6-4.2,0-5.8c1.6-1.6,4.2-1.6,5.8,0l2.9,2.9
				c1.6,1.6,1.6,4.2,0,5.8C144.9,134.1,143.9,134.5,142.8,134.5z"/>
		</g>
	</g>
	<g>
		<g>
			<path class="st3" d="M93.2,84.8c-1.1,0-2.1-0.4-2.9-1.2l-2.9-2.9c-1.6-1.6-1.6-4.2,0-5.8c1.6-1.6,4.2-1.6,5.8,0l2.9,2.9
				c1.6,1.6,1.6,4.2,0,5.8C95.3,84.4,94.2,84.8,93.2,84.8z"/>
		</g>
	</g>
</g>
</svg>
