<svg xmlns="http://www.w3.org/2000/svg" width="23.507" height="15.044" viewBox="0 0 23.507 15.044"><defs><style>.a{fill:#1e7cf8;fill-rule:evenodd;}</style></defs><g transform="translate(0 0)"><path class="a" d="M24.614,20.3l-5.569-4.774,5.569-4.774h0l-.759-.759-8.1,6.944-8.1-6.944-.759.759h0l5.569,4.774L6.893,20.3h0l.759.759,5.633-4.828,2.468,2.116,2.468-2.116,5.633,4.828.759-.759ZM5.884,8A1.88,1.88,0,0,0,4,9.875V21.169a1.875,1.875,0,0,0,1.884,1.875H25.623a1.88,1.88,0,0,0,1.884-1.875V9.875A1.875,1.875,0,0,0,25.623,8Z" transform="translate(-4 -8)"/></g></svg>